# AST/ASF file generated using VICON BodyLanguage
# -----------------------------------------------
:version 1.10
:name VICON
:units
  mass 1.0
  length 0.45
  angle deg
:documentation
   .ast/.asf automatically generated from VICON data using
   VICON BodyBuilder and BodyLanguage model FoxedUp or BRILLIANT.MOD
:root
   order TX TY TZ RX RY RZ
   axis XYZ
   position 0 0 0  
   orientation 0 0 0 
:bonedata
  begin
     id 1 
     name lhipjoint
     direction 0.606768 -0.715223 0.346827 
     length 2.41543 
     axis 0 0 0  XYZ
  end
  begin
     id 2 
     name lfemur
     direction 0.34202 -0.939693 0  
     length 7.2778  
     axis 0 0 20  XYZ
    dof rx ry rz
    limits (-160.0 20.0)
           (-70.0 70.0)
           (-60.0 70.0)
  end
  begin
     id 3 
     name ltibia
     direction 0.34202 -0.939693 0   
     length 7.61811   
     axis 0 0 20   XYZ
    dof rx
    limits (-10.0 170.0)
  end
  begin
     id 4 
     name lfoot
     direction 0.0823924 -0.226371 0.97055   
     length 2.33618   
     axis -90 7.62852e-016 20   XYZ
    dof rx rz
    limits (-45.0 90.0)
           (-70.0 20.0)
  end
  begin
     id 5 
     name ltoes
     direction 1.53554e-011 -4.21934e-011 1   
     length 1.17015   
     axis -90 7.62852e-016 20   XYZ
    dof rx
    limits (-90.0 20.0)
  end
  begin
     id 6 
     name rhipjoint
     direction -0.6077 -0.714582 0.346516   
     length 2.4176  
     axis 0 0 0  XYZ 
  end
  begin
     id 7 
     name rfemur
     direction -0.34202 -0.939693 0   
     length 7.28127   
     axis 0 0 -20   XYZ
    dof rx ry rz
    limits (-160.0 20.0)
           (-70.0 70.0)
           (-70.0 60.0)
  end
  begin
     id 8 
     name rtibia
     direction -0.34202 -0.939693 0   
     length 7.77648   
     axis 0 0 -20   XYZ
    dof rx
    limits (-10.0 170.0)
 end
 begin
     id 9 
     name rfoot
     direction -0.0809463 -0.222398 0.97159   
     length 2.37533  
     axis -90 -7.62852e-016 -20   XYZ
    dof rx rz
    limits (-45.0 90.0)
           (-20.0 70.0)
  end
  begin
     id 10 
     name rtoes
     direction -1.53568e-011 -4.21714e-011 1   
     length 1.18972   
     axis -90 -7.62852e-016 -20   XYZ
    dof rx
    limits (-90.0 20.0)
  end
  begin
     id 11 
     name lowerback
     direction 0.010968 0.991932 -0.126297   
     length 2.21698   
     axis 0 0 0   XYZ
    dof rx ry rz
    limits (-20.0 45.0)
           (-30.0 30.0)
           (-30.0 30.0)
  end
  begin
     id 12 
     name upperback
     direction 0.0167007 0.997503 -0.0686276   
     length 2.22371   
     axis 0 0 0   XYZ
    dof rx ry rz
    limits (-20.0 45.0)
           (-30.0 30.0)
           (-30.0 30.0)
  end
  begin
     id 13 
     name thorax
     direction 0.0111721 0.999885 -0.0102878   
     length 2.25242   
     axis 0 0 0   XYZ
    dof rx ry rz
    limits (-20.0 45.0)
           (-30.0 30.0)
           (-30.0 30.0)
  end
  begin
     id 14 
     name lowerneck
     direction -0.0120265 0.990428 0.137508   
     length 1.57674   
     axis 0 0 0   XYZ
    dof rx ry rz
    limits (-20.0 45.0)
           (-30.0 30.0)
           (-30.0 30.0)
  end
  begin
     id 15 
     name upperneck
     direction 0.0175669 0.998907 0.0433089   
     length 1.5618   
     axis 0 0 0   XYZ
    dof rx ry rz
    limits (-20.0 45.0)
           (-30.0 30.0)
           (-30.0 30.0)
  end
  begin
     id 16
     name head
     direction 0.00754609 0.99997 0.00185367  
     length 1.60579  
     axis 0 0 0   XYZ
    dof rx ry rz
    limits (-20.0 45.0)
           (-30.0 30.0)
           (-30.0 30.0)
  end
  begin
     id 17 
     name lclavicle
     direction 0.885866 0.429166 -0.176231  
     length 3.44967  
     axis 0 0 0   XYZ
    dof ry rz
    limits (-20.0 10.0)
           (0.0 20.0)
  end
  begin
     id 18 
     name lhumerus
     direction 1 -4.48973e-011 -1.90255e-027   
     length 5.20607   
     axis 180 -30 -90   XYZ
    dof rx ry rz
    limits (-60.0 90.0)
           (-90.0 90.0)
           (-90.0 90.0)
  end
  begin
     id 19
     name lradius
     direction 1 -4.48956e-011 9.87925e-027   
     length 3.39961   
     axis 180 -30 -90   XYZ
    dof rx
    limits (-10.0 170.0)
  end
  begin
     id 20
     name lwrist
     direction 1 -4.48985e-011 1.73247e-026   
     length 1.6998   
     axis -9.60847e-015 90 90   XYZ
    dof ry
    limits (-180.0 0.0)
 end
  begin
     id 21 
     name lhand
     direction 1 -4.48798e-011 3.46119e-026   
     length 0.519693   
     axis -2.21073e-014 90 90   XYZ
    dof rx rz
    limits (-90.0 90.0)
           (-45.0 45.0)
  end
  begin
     id 22 
     name lfingers
     direction 1 -4.48938e-011 6.92797e-026   
     length 0.41899   
     axis -4.42155e-014 90 90   XYZ
    dof rx
    limits (0.0 90.0)
  end
  begin
     id 23
     name lthumb
     direction 0.707107 -6.34952e-011 0.707107   
     length 0.601588   
     axis -90 45 6.0103e-014   XYZ
    dof rx rz
    limits (-45.0 45.0)
           (-45.0 45.0)
  end
  begin
     id 24 
     name rclavicle
     direction -0.866736 0.456792 -0.200276   
     length 3.45032  
     axis 0 0 0   XYZ 
    dof ry rz
    limits (-10.0 20.0)
           (-20.0 0.0)
  end
  begin
     id 25 
     name rhumerus
     direction -1 -4.4897e-011 8.65094e-028  
     length 5.32214   
     axis 180 30 90   XYZ
    dof rx ry rz
    limits (-90.0 60.0)
           (-90.0 90.0)
           (-90.0 90.0)
  end
  begin
     id 26 
     name rradius
     direction -1 -4.48987e-011 1.08427e-026   
     length 3.51208   
     axis 180 30 90   XYZ
    dof rx
    limits (-10.0 170.0)
  end
  begin
     id 27 
     name rwrist
     direction -1 -4.48961e-011 1.73222e-026   
     length 1.75604   
     axis -9.60847e-015 -90 -90   XYZ
    dof ry
    limits (-180.0 0.0)
  end
  begin
     id 28
     name rhand
     direction -1 -4.48895e-011 3.46314e-026   
     length 0.586681   
     axis -2.21073e-014 -90 -90   XYZ
    dof rx rz
    limits (-90.0 90.0)
           (-45.0 45.0)
  end
  begin
     id 29
     name rfingers
     direction -1 -4.48968e-011 6.92916e-026   
     length 0.472997   
     axis -4.42155e-014 -90 -90   XYZ
    dof rx
    limits (0.0 90.0)
  end
  begin
     id 30
     name rthumb
     direction -0.707107 -6.34848e-011 0.707107   
     length 0.679133   
     axis -90 -45 -6.0103e-014   XYZ
    dof rx rz
    limits (-45.0 45.0)
           (-45.0 45.0)
  end
:hierarchy
  begin
    root lhipjoint rhipjoint lowerback
    lhipjoint lfemur
    lfemur ltibia
    ltibia lfoot
    lfoot ltoes
    rhipjoint rfemur
    rfemur rtibia
    rtibia rfoot
    rfoot rtoes
    lowerback upperback
    upperback thorax
    thorax lowerneck lclavicle rclavicle
    lowerneck upperneck
    upperneck head
    lclavicle lhumerus
    lhumerus lradius
    lradius lwrist
    lwrist lhand lthumb
    lhand lfingers
    rclavicle rhumerus
    rhumerus rradius
    rradius rwrist
    rwrist rhand rthumb
    rhand rfingers
  end

#!OML:ASF H:\Dans Jumps\Project 1\Capture day 1\Session 1\subject.ASF
:FULLY-SPECIFIED
:DEGREES
66
root 0.467774 17.5352 -14.1266 5.95732 0.245869 -1.17336
lowerback -0.571661 -0.665663 -0.132028
upperback 3.90953 -0.943753 1.55522
thorax 4.37656 -0.505882 1.63727
lowerneck -13.1517 0.619369 -1.99156
upperneck 33.5643 1.23897 0.644761
head 13.4896 0.369832 0.791827
rclavicle -9.19379e-015 7.35503e-015
rhumerus -24.5051 -15.242 -79.6835
rradius 25.1201
rwrist 30.7706
rhand -18.5858 -26.4484
rfingers 7.12502
rthumb 7.70498 -56.288
lclavicle -9.19379e-015 7.35503e-015
lhumerus -20.3868 0.847743 87.2414
lradius 18.6671
lwrist 2.70861
lhand -25.4623 -3.50925
lfingers 7.12502
lthumb 1.06508 26.4678
rfemur -14.7876 -2.64401 20.0046
rtibia 24.3793
rfoot -14.1944 -2.43524
rtoes 11.8723
lfemur -13.7057 6.78731 -18.9596
ltibia 21.7645
lfoot -12.0447 4.18163
ltoes 3.93728
67
root 0.469233 17.5336 -14.1267 5.94707 0.222508 -1.1896
lowerback -0.564431 -0.655324 -0.120984
upperback 3.91141 -0.930554 1.56351
thorax 4.37398 -0.499089 1.6403
lowerneck -13.1508 0.621753 -1.99401
upperneck 33.558 1.24347 0.643909
head 13.4866 0.371484 0.792542
rclavicle 9.0944e-015 -1.13307e-014
rhumerus -24.5139 -15.2607 -79.6974
rradius 25.1075
rwrist 30.7951
rhand -18.5881 -26.4435
rfingers 7.12502
rthumb 7.70271 -56.2832
lclavicle 9.0944e-015 -1.13307e-014
lhumerus -20.3818 0.895858 87.1689
lradius 18.6555
lwrist 2.681
lhand -25.4456 -3.45541
lfingers 7.12502
lthumb 1.08121 26.5216
rfemur -14.7951 -2.62516 20.0161
rtibia 24.4102
rfoot -14.2088 -2.43857
rtoes 11.8464
lfemur -13.7244 6.79902 -18.9472
ltibia 21.8282
lfoot -12.0706 4.21291
ltoes 3.89405
68
root 0.47085 17.532 -14.1268 5.9359 0.195419 -1.20648
lowerback -0.556746 -0.644579 -0.111319
upperback 3.91383 -0.916848 1.57365
thorax 4.37176 -0.492136 1.64604
lowerneck -13.1443 0.62344 -1.99976
upperneck 33.5493 1.24794 0.642286
head 13.4813 0.372638 0.793461
rclavicle -4.96962e-017 0
rhumerus -24.5177 -15.2811 -79.7095
rradius 25.0905
rwrist 30.814
rhand -18.5745 -26.4517
rfingers 7.12502
rthumb 7.7159 -56.2909
lclavicle -4.96962e-017 0
lhumerus -20.375 0.923092 87.1055
lradius 18.6419
lwrist 2.67714
lhand -25.4478 -3.38943
lfingers 7.12502
lthumb 1.07909 26.5876
rfemur -14.8028 -2.60436 20.0275
rtibia 24.4422
rfoot -14.2239 -2.43997
rtoes 11.8217
lfemur -13.7427 6.81086 -18.9349
ltibia 21.8939
lfoot -12.0971 4.25059
ltoes 3.84357
69
root 0.472605 17.5303 -14.127 5.92426 0.167622 -1.22255
lowerback -0.549728 -0.633916 -0.103241
upperback 3.91824 -0.903255 1.58428
thorax 4.37201 -0.485325 1.65315
lowerneck -13.1403 0.625206 -2.00079
upperneck 33.5396 1.25299 0.635557
head 13.4761 0.373966 0.791626
rclavicle 1.55549e-014 -1.86858e-014
rhumerus -24.5138 -15.3026 -79.7218
rradius 25.0697
rwrist 30.824
rhand -18.5559 -26.462
rfingers 7.12502
rthumb 7.73382 -56.3006
lclavicle 1.55549e-014 -1.86858e-014
lhumerus -20.3626 0.934779 87.0474
lradius 18.6224
lwrist 2.68904
lhand -25.4614 -3.33663
lfingers 7.12502
lthumb 1.06597 26.6405
rfemur -14.8119 -2.5816 20.0374
rtibia 24.477
rfoot -14.2401 -2.44354
rtoes 11.7917
lfemur -13.761 6.81891 -18.9237
ltibia 21.9605
lfoot -12.1241 4.29327
ltoes 3.79443
70
root 0.474512 17.5286 -14.1273 5.91316 0.139472 -1.23516
lowerback -0.542477 -0.624507 -0.0988721
upperback 3.92246 -0.891224 1.59486
thorax 4.37205 -0.479422 1.66222
lowerneck -13.1328 0.62828 -1.99744
upperneck 33.5262 1.2609 0.622048
head 13.4687 0.376225 0.78671
rclavicle -8.15017e-015 1.98785e-015
rhumerus -24.5055 -15.3216 -79.7335
rradius 25.0443
rwrist 30.8356
rhand -18.5333 -26.4641
rfingers 7.12502
rthumb 7.75563 -56.3019
lclavicle -8.15017e-015 1.98785e-015
lhumerus -20.3499 0.954373 86.9901
lradius 18.6008
lwrist 2.6953
lhand -25.4806 -3.28438
lfingers 7.12502
lthumb 1.04741 26.6928
rfemur -14.8237 -2.56038 20.0432
rtibia 24.5156
rfoot -14.2579 -2.44769
rtoes 11.7488
lfemur -13.7797 6.82324 -18.9169
ltibia 22.0268
lfoot -12.1501 4.33997
ltoes 3.7542
71
root 0.476528 17.5268 -14.1277 5.90462 0.110114 -1.24393
lowerback -0.536946 -0.615491 -0.0978561
upperback 3.92702 -0.87958 1.60379
thorax 4.37346 -0.473806 1.67144
lowerneck -13.128 0.63238 -1.98676
upperneck 33.5117 1.27011 0.603163
head 13.4615 0.379266 0.778591
rclavicle 8.99501e-015 -1.8487e-014
rhumerus -24.493 -15.3411 -79.7457
rradius 25.0143
rwrist 30.8563
rhand -18.5254 -26.4419
rfingers 7.12502
rthumb 7.76321 -56.2794
lclavicle 8.99501e-015 -1.8487e-014
lhumerus -20.3373 0.994002 86.9286
lradius 18.5819
lwrist 2.68189
lhand -25.4892 -3.22889
lfingers 7.12502
lthumb 1.03909 26.7483
rfemur -14.8423 -2.54001 20.0446
rtibia 24.5593
rfoot -14.2779 -2.45178
rtoes 11.6938
lfemur -13.8016 6.82387 -18.9153
ltibia 22.0926
lfoot -12.1744 4.39098
ltoes 3.72241
72
root 0.47866 17.5251 -14.1282 5.89792 0.0810912 -1.2477
lowerback -0.531235 -0.607234 -0.100793
upperback 3.93084 -0.86875 1.61082
thorax 4.37404 -0.468693 1.68087
lowerneck -13.1258 0.637805 -1.97581
upperneck 33.4986 1.28064 0.586128
head 13.4554 0.383129 0.771387
rclavicle 5.96354e-016 4.96962e-015
rhumerus -24.4839 -15.3505 -79.7586
rradius 24.9866
rwrist 30.8836
rhand -18.5363 -26.3972
rfingers 7.12502
rthumb 7.75275 -56.2351
lclavicle 5.96354e-016 4.96962e-015
lhumerus -20.3287 1.04226 86.8661
lradius 18.569
lwrist 2.65896
lhand -25.4978 -3.19505
lfingers 7.12502
lthumb 1.03075 26.7822
rfemur -14.866 -2.52189 20.0404
rtibia 24.6087
rfoot -14.2996 -2.45518
rtoes 11.6357
lfemur -13.8256 6.82092 -18.9202
ltibia 22.1574
lfoot -12.1951 4.44656
ltoes 3.6866
73
root 0.480802 17.5233 -14.1289 5.89373 0.0511102 -1.24971
lowerback -0.522558 -0.599145 -0.10636
upperback 3.93236 -0.858001 1.61757
thorax 4.37058 -0.463685 1.69152
lowerneck -13.131 0.643649 -1.96709
upperneck 33.4935 1.2911 0.573606
head 13.4543 0.387176 0.766475
rclavicle 6.5102e-015 -1.27222e-014
rhumerus -24.4787 -15.3573 -79.7698
rradius 24.9596
rwrist 30.9246
rhand -18.5638 -26.3405
rfingers 7.12502
rthumb 7.72616 -56.1793
lclavicle 6.5102e-015 -1.27222e-014
lhumerus -20.3245 1.11303 86.801
lradius 18.5582
lwrist 2.61081
lhand -25.5081 -3.17765
lfingers 7.12502
lthumb 1.02084 26.7997
rfemur -14.8966 -2.50147 20.0344
rtibia 24.6636
rfoot -14.3218 -2.46063
rtoes 11.5752
lfemur -13.8533 6.81634 -18.9278
ltibia 22.2214
lfoot -12.2118 4.50628
ltoes 3.63972
74
root 0.482968 17.5215 -14.1298 5.89004 0.0181915 -1.24889
lowerback -0.511471 -0.590161 -0.11451
upperback 3.93252 -0.845869 1.62228
thorax 4.36428 -0.458023 1.7016
lowerneck -13.139 0.648868 -1.96184
upperneck 33.4948 1.29896 0.56921
head 13.4566 0.390645 0.765073
rclavicle 4.91992e-015 -1.49089e-014
rhumerus -24.4813 -15.3562 -79.7828
rradius 24.9425
rwrist 30.9603
rhand -18.5889 -26.2918
rfingers 7.12502
rthumb 7.70199 -56.1316
lclavicle 4.91992e-015 -1.49089e-014
lhumerus -20.3242 1.1858 86.7355
lradius 18.55
lwrist 2.55722
lhand -25.5187 -3.17746
lfingers 7.12502
lthumb 1.0106 26.7999
rfemur -14.9312 -2.47631 20.0253
rtibia 24.7231
rfoot -14.3434 -2.46797
rtoes 11.5147
lfemur -13.8818 6.81089 -18.939
ltibia 22.2848
lfoot -12.225 4.57079
ltoes 3.57829
